G04 This is an RS-274x file exported by *
G04 gerbv version 2.6A *
G04 More information is available about gerbv at *
G04 http://gerbv.geda-project.org/ *
G04 --End of header info--*
%MOIN*%
%FSLAX34Y34*%
%IPPOS*%
%INKB4Y805__.GBL*%
G04 --Define apertures--*
%ADD10C,0.0100*%
%ADD11C,0.0118*%
%ADD12C,0.0150*%
%ADD13C,0.0157*%
%ADD14C,0.0197*%
%ADD15C,0.0020*%
%ADD16C,0.0250*%
%ADD17C,0.0039*%
%ADD18C,0.0050*%
%ADD19C,0.0079*%
%ADD20C,0.0098*%
%ADD21C,0.1378*%
%ADD22C,0.1438*%
%ADD23C,0.0591*%
%ADD24C,0.0650*%
%ADD25C,0.0669*%
%ADD26C,0.0729*%
%ADD27C,0.0847*%
%AMMACRO28*
1,1,0.078740,0.000000,0.000000*
1,0,0.058740,0.000000,0.000000*
21,1,0.068740,0.005000,0.000000,0.000000,0.000000*
21,1,0.005000,0.068740,0.000000,0.000000,0.000000*
%
%ADD28MACRO28*%
%ADD29R,0.0591X0.0591*%
%ADD30R,0.0600X0.0560*%
%ADD31R,0.0650X0.0650*%
%ADD32R,0.0660X0.0620*%
%ADD33R,0.0669X0.0669*%
%ADD34R,0.0729X0.0729*%
%ADD35R,0.0748X0.0630*%
%ADD36R,0.0787X0.0787*%
%ADD37R,0.0800X0.0260*%
%ADD38R,0.0808X0.0690*%
%ADD39R,0.0847X0.0847*%
%ADD40R,0.0860X0.0320*%
%ADD41C,0.0400*%
%ADD42C,0.0460*%
G04 --Start main section--*
G54D14*
G01X0021300Y0020800D02*
G01X0021250Y0020750D01*
G01X0021250Y0020750D02*
G01X0021250Y0018955D01*
G01X0021300Y0022150D02*
G01X0021300Y0023500D01*
G01X0021300Y0022150D02*
G01X0022500Y0022150D01*
G54D13*
G01X0022500Y0024850D02*
G01X0023000Y0024850D01*
G01X0023000Y0024850D02*
G01X0023000Y0026741D01*
G54D14*
G01X0025750Y0018324D02*
G01X0025750Y0018350D01*
G01X0025750Y0019500D02*
G01X0025000Y0019500D01*
G01X0025750Y0018350D02*
G01X0025750Y0019500D01*
G54D20*
G01X0026750Y0023539D02*
G01X0026750Y0022500D01*
G01X0025250Y0025008D02*
G01X0025250Y0025000D01*
G01X0025250Y0025198D02*
G01X0025250Y0025008D01*
G01X0025552Y0025500D02*
G01X0025250Y0025198D01*
G54D11*
G01X0024500Y0026500D02*
G01X0024500Y0024256D01*
G54D14*
G01X0028250Y0018633D02*
G01X0028250Y0019000D01*
G01X0027967Y0018350D02*
G01X0028250Y0018633D01*
G54D20*
G01X0028000Y0024250D02*
G01X0027986Y0024250D01*
G01X0029000Y0026487D02*
G01X0029000Y0026500D01*
G01X0028013Y0025500D02*
G01X0029000Y0026487D01*
G54D14*
G01X0029000Y0027500D02*
G01X0029750Y0027500D01*
G01X0029000Y0028150D02*
G01X0029000Y0027500D01*
G54D11*
G01X0030337Y0020500D02*
G01X0032546Y0020500D01*
G54D20*
G01X0031500Y0022000D02*
G01X0031500Y0021989D01*
G01X0031500Y0021989D02*
G01X0031989Y0021500D01*
G01X0031626Y0023501D02*
G01X0031624Y0023500D01*
G01X0031617Y0023500D02*
G01X0030750Y0022633D01*
G01X0031617Y0023500D02*
G01X0031624Y0023500D01*
G54D14*
G01X0034000Y0020000D02*
G01X0034245Y0020000D01*
G01X0034245Y0020000D02*
G01X0034750Y0020505D01*
G54D20*
G01X0034000Y0021990D02*
G01X0034000Y0022000D01*
G01X0033510Y0021500D02*
G01X0034000Y0021990D01*
G01X0034000Y0023000D02*
G01X0033500Y0022500D01*
G54D14*
G01X0034750Y0026264D02*
G01X0034264Y0026750D01*
G01X0021300Y0022150D02*
G01X0021300Y0020800D01*
G01X0021250Y0018955D02*
G01X0022455Y0017750D01*
G54D13*
G01X0023000Y0019500D02*
G01X0023000Y0024850D01*
G01X0023759Y0027500D02*
G01X0023000Y0026741D01*
G54D14*
G01X0022513Y0028150D02*
G01X0021300Y0026937D01*
G01X0021300Y0026100D02*
G01X0021300Y0026937D01*
G01X0025176Y0017750D02*
G01X0025750Y0018324D01*
G54D20*
G01X0025250Y0022427D02*
G01X0025250Y0021000D01*
G54D11*
G01X0024750Y0022500D02*
G01X0024750Y0024006D01*
G01X0024750Y0024006D02*
G01X0024500Y0024256D01*
G01X0028500Y0023500D02*
G01X0028500Y0024450D01*
G01X0027986Y0024250D02*
G01X0027992Y0022837D01*
G54D14*
G01X0029750Y0026750D02*
G01X0029750Y0027500D01*
G54D20*
G01X0030749Y0021000D02*
G01X0030750Y0021000D01*
G01X0030750Y0022633D02*
G01X0030750Y0021000D01*
G01X0033507Y0023500D02*
G01X0034000Y0023993D01*
G01X0034000Y0023993D02*
G01X0033987Y0023987D01*
G01X0034000Y0024000D02*
G01X0033987Y0023987D01*
G01X0033987Y0023987D02*
G01X0033500Y0023500D01*
G54D14*
G01X0021300Y0023500D02*
G01X0021300Y0026100D01*
G01X0034750Y0020505D02*
G01X0034750Y0026264D01*
G01X0022455Y0017750D02*
G01X0025176Y0017750D01*
G01X0021300Y0023500D02*
G01X0021000Y0023500D01*
G01X0025750Y0018350D02*
G01X0027967Y0018350D01*
G54D20*
G01X0033500Y0022500D02*
G01X0031250Y0022500D01*
G01X0031989Y0021500D02*
G01X0033510Y0021500D01*
G01X0031624Y0023500D02*
G01X0033500Y0023500D01*
G54D14*
G01X0033000Y0026750D02*
G01X0033000Y0026000D01*
G01X0029750Y0026750D02*
G01X0033000Y0026750D01*
G01X0033000Y0026750D02*
G01X0034264Y0026750D01*
G54D20*
G01X0032200Y0024800D02*
G01X0028011Y0024800D01*
G01X0033000Y0025000D02*
G01X0027823Y0025000D01*
G01X0028013Y0025500D02*
G01X0025552Y0025500D01*
G01X0032996Y0024000D02*
G01X0033000Y0024000D01*
G01X0033000Y0020954D02*
G01X0033000Y0021000D01*
G01X0032200Y0024800D02*
G01X0032996Y0024000D01*
G01X0028011Y0024800D02*
G01X0026750Y0023539D01*
G54D19*
G01X0033176Y0018267D02*
G01X0033176Y0017879D01*
G01X0032918Y0018267D02*
G01X0033176Y0018008D01*
G01X0033084Y0018101D02*
G01X0032918Y0017879D01*
G01X0032789Y0018267D02*
G01X0032789Y0017879D01*
G01X0032789Y0017879D02*
G01X0032623Y0017879D01*
G01X0032623Y0017879D02*
G01X0032567Y0017898D01*
G01X0032567Y0017898D02*
G01X0032549Y0017916D01*
G01X0032549Y0017916D02*
G01X0032530Y0017953D01*
G01X0032530Y0017953D02*
G01X0032530Y0018008D01*
G01X0032530Y0018008D02*
G01X0032549Y0018045D01*
G01X0032549Y0018045D02*
G01X0032567Y0018064D01*
G01X0032567Y0018064D02*
G01X0032623Y0018082D01*
G01X0032623Y0018082D02*
G01X0032567Y0018101D01*
G01X0032567Y0018101D02*
G01X0032549Y0018119D01*
G01X0032549Y0018119D02*
G01X0032530Y0018156D01*
G01X0032530Y0018156D02*
G01X0032530Y0018193D01*
G01X0032530Y0018193D02*
G01X0032549Y0018230D01*
G01X0032549Y0018230D02*
G01X0032567Y0018248D01*
G01X0032567Y0018248D02*
G01X0032623Y0018267D01*
G01X0032623Y0018267D02*
G01X0032789Y0018267D01*
G01X0032789Y0018082D02*
G01X0032623Y0018082D01*
G01X0032235Y0017879D02*
G01X0032235Y0018267D01*
G01X0032235Y0018267D02*
G01X0032420Y0018008D01*
G01X0032420Y0018008D02*
G01X0032143Y0018008D01*
G01X0032087Y0018267D02*
G01X0031940Y0018082D01*
G01X0031940Y0018082D02*
G01X0031940Y0017879D01*
G01X0031792Y0018267D02*
G01X0031940Y0018082D01*
G01X0031626Y0018267D02*
G01X0031681Y0018248D01*
G01X0031681Y0018248D02*
G01X0031700Y0018211D01*
G01X0031700Y0018211D02*
G01X0031700Y0018174D01*
G01X0031700Y0018174D02*
G01X0031681Y0018138D01*
G01X0031681Y0018138D02*
G01X0031644Y0018119D01*
G01X0031644Y0018119D02*
G01X0031571Y0018101D01*
G01X0031571Y0018101D02*
G01X0031515Y0018082D01*
G01X0031515Y0018082D02*
G01X0031478Y0018045D01*
G01X0031478Y0018045D02*
G01X0031460Y0018008D01*
G01X0031460Y0018008D02*
G01X0031460Y0017953D01*
G01X0031460Y0017953D02*
G01X0031478Y0017916D01*
G01X0031478Y0017916D02*
G01X0031497Y0017898D01*
G01X0031497Y0017898D02*
G01X0031552Y0017879D01*
G01X0031552Y0017879D02*
G01X0031626Y0017879D01*
G01X0031626Y0017879D02*
G01X0031681Y0017898D01*
G01X0031681Y0017898D02*
G01X0031700Y0017916D01*
G01X0031700Y0017916D02*
G01X0031718Y0017953D01*
G01X0031718Y0017953D02*
G01X0031718Y0018008D01*
G01X0031718Y0018008D02*
G01X0031700Y0018045D01*
G01X0031700Y0018045D02*
G01X0031663Y0018082D01*
G01X0031663Y0018082D02*
G01X0031608Y0018101D01*
G01X0031608Y0018101D02*
G01X0031534Y0018119D01*
G01X0031534Y0018119D02*
G01X0031497Y0018138D01*
G01X0031497Y0018138D02*
G01X0031478Y0018174D01*
G01X0031478Y0018174D02*
G01X0031478Y0018211D01*
G01X0031478Y0018211D02*
G01X0031497Y0018248D01*
G01X0031497Y0018248D02*
G01X0031552Y0018267D01*
G01X0031552Y0018267D02*
G01X0031626Y0018267D01*
G01X0031238Y0018267D02*
G01X0031294Y0018248D01*
G01X0031294Y0018248D02*
G01X0031331Y0018193D01*
G01X0031331Y0018193D02*
G01X0031349Y0018101D01*
G01X0031349Y0018101D02*
G01X0031349Y0018045D01*
G01X0031349Y0018045D02*
G01X0031331Y0017953D01*
G01X0031331Y0017953D02*
G01X0031294Y0017898D01*
G01X0031294Y0017898D02*
G01X0031238Y0017879D01*
G01X0031238Y0017879D02*
G01X0031201Y0017879D01*
G01X0031201Y0017879D02*
G01X0031146Y0017898D01*
G01X0031146Y0017898D02*
G01X0031109Y0017953D01*
G01X0031109Y0017953D02*
G01X0031091Y0018045D01*
G01X0031091Y0018045D02*
G01X0031091Y0018101D01*
G01X0031091Y0018101D02*
G01X0031109Y0018193D01*
G01X0031109Y0018193D02*
G01X0031146Y0018248D01*
G01X0031146Y0018248D02*
G01X0031201Y0018267D01*
G01X0031201Y0018267D02*
G01X0031238Y0018267D01*
G01X0031109Y0018193D02*
G01X0031331Y0017953D01*
G01X0030759Y0018267D02*
G01X0030943Y0018267D01*
G01X0030943Y0018267D02*
G01X0030962Y0018101D01*
G01X0030962Y0018101D02*
G01X0030943Y0018119D01*
G01X0030943Y0018119D02*
G01X0030888Y0018138D01*
G01X0030888Y0018138D02*
G01X0030832Y0018138D01*
G01X0030832Y0018138D02*
G01X0030777Y0018119D01*
G01X0030777Y0018119D02*
G01X0030740Y0018082D01*
G01X0030740Y0018082D02*
G01X0030722Y0018027D01*
G01X0030722Y0018027D02*
G01X0030722Y0017990D01*
G01X0030722Y0017990D02*
G01X0030740Y0017935D01*
G01X0030740Y0017935D02*
G01X0030777Y0017898D01*
G01X0030777Y0017898D02*
G01X0030832Y0017879D01*
G01X0030832Y0017879D02*
G01X0030888Y0017879D01*
G01X0030888Y0017879D02*
G01X0030943Y0017898D01*
G01X0030943Y0017898D02*
G01X0030962Y0017916D01*
G01X0030962Y0017916D02*
G01X0030980Y0017953D01*
G54D11*
G01X0027992Y0022837D02*
G01X0030337Y0020500D01*
G01X0032546Y0020500D02*
G01X0033000Y0020954D01*
G01X0024000Y0027000D02*
G01X0024000Y0024000D01*
G54D13*
G01X0027000Y0027500D02*
G01X0023759Y0027500D01*
G54D14*
G01X0029000Y0028150D02*
G01X0022513Y0028150D01*
G54D20*
G01X0027823Y0025000D02*
G01X0025250Y0022427D01*
G54D16*
G01X0019572Y0027267D02*
G01X0019572Y0018733D01*
G01X0019572Y0018733D02*
G01X0019702Y0019048D01*
G01X0019702Y0019048D02*
G01X0020250Y0019274D01*
G01X0020250Y0019274D02*
G01X0020798Y0019048D01*
G01X0020798Y0019048D02*
G01X0021024Y0018500D01*
G01X0021024Y0018500D02*
G01X0020798Y0017952D01*
G01X0020798Y0017952D02*
G01X0020483Y0017822D01*
G01X0020483Y0017822D02*
G01X0023922Y0017822D01*
G01X0023922Y0017822D02*
G01X0023596Y0017957D01*
G01X0023596Y0017957D02*
G01X0023581Y0017919D01*
G01X0023581Y0017919D02*
G01X0023399Y0017844D01*
G01X0023399Y0017844D02*
G01X0022601Y0017844D01*
G01X0022601Y0017844D02*
G01X0022419Y0017919D01*
G01X0022419Y0017919D02*
G01X0022344Y0018101D01*
G01X0022344Y0018101D02*
G01X0022344Y0018899D01*
G01X0022344Y0018899D02*
G01X0022419Y0019081D01*
G01X0022419Y0019081D02*
G01X0022457Y0019096D01*
G01X0022457Y0019096D02*
G01X0022289Y0019500D01*
G01X0022289Y0019500D02*
G01X0022498Y0020002D01*
G01X0022498Y0020002D02*
G01X0022599Y0020045D01*
G01X0022599Y0020045D02*
G01X0022599Y0021523D01*
G01X0022599Y0021523D02*
G01X0022500Y0021482D01*
G01X0022500Y0021482D02*
G01X0022028Y0021678D01*
G01X0022028Y0021678D02*
G01X0021832Y0022150D01*
G01X0021832Y0022150D02*
G01X0021960Y0022458D01*
G01X0021960Y0022458D02*
G01X0021958Y0022458D01*
G01X0021958Y0022458D02*
G01X0021883Y0022641D01*
G01X0021883Y0022641D02*
G01X0021883Y0022990D01*
G01X0021883Y0022990D02*
G01X0021774Y0022726D01*
G01X0021774Y0022726D02*
G01X0021000Y0022406D01*
G01X0021000Y0022406D02*
G01X0020226Y0022726D01*
G01X0020226Y0022726D02*
G01X0019906Y0023500D01*
G01X0019906Y0023500D02*
G01X0020226Y0024274D01*
G01X0020226Y0024274D02*
G01X0021000Y0024594D01*
G01X0021000Y0024594D02*
G01X0021774Y0024274D01*
G01X0021774Y0024274D02*
G01X0021859Y0024066D01*
G01X0021859Y0024066D02*
G01X0022008Y0024425D01*
G01X0022008Y0024425D02*
G01X0021832Y0024850D01*
G01X0021832Y0024850D02*
G01X0022020Y0025304D01*
G01X0022020Y0025304D02*
G01X0021300Y0025006D01*
G01X0021300Y0025006D02*
G01X0020526Y0025326D01*
G01X0020526Y0025326D02*
G01X0020206Y0026100D01*
G01X0020206Y0026100D02*
G01X0020509Y0026833D01*
G01X0020509Y0026833D02*
G01X0020250Y0026725D01*
G01X0020250Y0026725D02*
G01X0019702Y0026952D01*
G01X0019702Y0026952D02*
G01X0019572Y0027267D01*
G01X0022074Y0021574D02*
G01X0022394Y0020800D01*
G01X0022394Y0020800D02*
G01X0022074Y0020026D01*
G01X0022074Y0020026D02*
G01X0021300Y0019706D01*
G01X0021300Y0019706D02*
G01X0020526Y0020026D01*
G01X0020526Y0020026D02*
G01X0020206Y0020800D01*
G01X0020206Y0020800D02*
G01X0020526Y0021574D01*
G01X0020526Y0021574D02*
G01X0021300Y0021894D01*
G01X0021300Y0021894D02*
G01X0022074Y0021574D01*
G01X0020483Y0017822D02*
G01X0023922Y0017822D01*
G01X0020821Y0018009D02*
G01X0022382Y0018009D01*
G01X0020899Y0018197D02*
G01X0022344Y0018197D01*
G01X0020977Y0018384D02*
G01X0022344Y0018384D01*
G01X0020995Y0018572D02*
G01X0022344Y0018572D01*
G01X0019572Y0018759D02*
G01X0019583Y0018759D01*
G01X0020917Y0018759D02*
G01X0022344Y0018759D01*
G01X0019572Y0018947D02*
G01X0019661Y0018947D01*
G01X0020839Y0018947D02*
G01X0022363Y0018947D01*
G01X0019572Y0019134D02*
G01X0019912Y0019134D01*
G01X0020588Y0019134D02*
G01X0022441Y0019134D01*
G01X0019572Y0019322D02*
G01X0022363Y0019322D01*
G01X0019572Y0019509D02*
G01X0022293Y0019509D01*
G01X0019572Y0019697D02*
G01X0022371Y0019697D01*
G01X0019572Y0019884D02*
G01X0020869Y0019884D01*
G01X0021731Y0019884D02*
G01X0022449Y0019884D01*
G01X0019572Y0020072D02*
G01X0020507Y0020072D01*
G01X0022092Y0020072D02*
G01X0022599Y0020072D01*
G01X0019572Y0020259D02*
G01X0020430Y0020259D01*
G01X0022170Y0020259D02*
G01X0022599Y0020259D01*
G01X0019572Y0020447D02*
G01X0020352Y0020447D01*
G01X0022248Y0020447D02*
G01X0022599Y0020447D01*
G01X0019572Y0020634D02*
G01X0020274Y0020634D01*
G01X0022325Y0020634D02*
G01X0022599Y0020634D01*
G01X0019572Y0020822D02*
G01X0020215Y0020822D01*
G01X0022385Y0020822D02*
G01X0022599Y0020822D01*
G01X0019572Y0021009D02*
G01X0020293Y0021009D01*
G01X0022307Y0021009D02*
G01X0022599Y0021009D01*
G01X0019572Y0021197D02*
G01X0020370Y0021197D01*
G01X0022230Y0021197D02*
G01X0022599Y0021197D01*
G01X0019572Y0021384D02*
G01X0020448Y0021384D01*
G01X0022152Y0021384D02*
G01X0022599Y0021384D01*
G01X0019572Y0021572D02*
G01X0020526Y0021572D01*
G01X0022074Y0021572D02*
G01X0022283Y0021572D01*
G01X0019572Y0021759D02*
G01X0020975Y0021759D01*
G01X0021625Y0021759D02*
G01X0021994Y0021759D01*
G01X0019572Y0021947D02*
G01X0021916Y0021947D01*
G01X0019572Y0022134D02*
G01X0021839Y0022134D01*
G01X0019572Y0022322D02*
G01X0021903Y0022322D01*
G01X0019572Y0022509D02*
G01X0020750Y0022509D01*
G01X0021250Y0022509D02*
G01X0021937Y0022509D01*
G01X0019572Y0022697D02*
G01X0020298Y0022697D01*
G01X0021702Y0022697D02*
G01X0021883Y0022697D01*
G01X0019572Y0022884D02*
G01X0020161Y0022884D01*
G01X0021839Y0022884D02*
G01X0021883Y0022884D01*
G01X0019572Y0023072D02*
G01X0020083Y0023072D01*
G01X0019572Y0023259D02*
G01X0020006Y0023259D01*
G01X0019572Y0023447D02*
G01X0019928Y0023447D01*
G01X0019572Y0023634D02*
G01X0019962Y0023634D01*
G01X0019572Y0023822D02*
G01X0020039Y0023822D01*
G01X0019572Y0024009D02*
G01X0020117Y0024009D01*
G01X0019572Y0024197D02*
G01X0020195Y0024197D01*
G01X0021805Y0024197D02*
G01X0021914Y0024197D01*
G01X0019572Y0024384D02*
G01X0020494Y0024384D01*
G01X0021506Y0024384D02*
G01X0021991Y0024384D01*
G01X0019572Y0024572D02*
G01X0020946Y0024572D01*
G01X0021054Y0024572D02*
G01X0021947Y0024572D01*
G01X0019572Y0024759D02*
G01X0021870Y0024759D01*
G01X0019572Y0024947D02*
G01X0021872Y0024947D01*
G01X0019572Y0025134D02*
G01X0020990Y0025134D01*
G01X0021610Y0025134D02*
G01X0021950Y0025134D01*
G01X0019572Y0025322D02*
G01X0020537Y0025322D01*
G01X0019572Y0025509D02*
G01X0020451Y0025509D01*
G01X0019572Y0025697D02*
G01X0020373Y0025697D01*
G01X0019572Y0025884D02*
G01X0020295Y0025884D01*
G01X0019572Y0026072D02*
G01X0020218Y0026072D01*
G01X0019572Y0026259D02*
G01X0020272Y0026259D01*
G01X0019572Y0026447D02*
G01X0020350Y0026447D01*
G01X0019572Y0026634D02*
G01X0020427Y0026634D01*
G01X0019572Y0026822D02*
G01X0020017Y0026822D01*
G01X0020483Y0026822D02*
G01X0020505Y0026822D01*
G01X0019572Y0027009D02*
G01X0019679Y0027009D01*
G01X0019572Y0027197D02*
G01X0019601Y0027197D01*
G54D12*
G01X0022352Y0022002D02*
G01X0022028Y0021678D01*
G01X0020956Y0026444D02*
G01X0020509Y0026833D01*
G01X0020956Y0025756D02*
G01X0020526Y0025326D01*
G01X0021644Y0025756D02*
G01X0022020Y0025304D01*
G01X0020656Y0023844D02*
G01X0020226Y0024274D01*
G01X0020656Y0023156D02*
G01X0020226Y0022726D01*
G01X0021344Y0023156D02*
G01X0021774Y0022726D01*
G01X0021344Y0023844D02*
G01X0021774Y0024274D01*
G01X0020956Y0021144D02*
G01X0020526Y0021574D01*
G01X0020956Y0020456D02*
G01X0020526Y0020026D01*
G01X0021644Y0020456D02*
G01X0022074Y0020026D01*
G01X0021644Y0021144D02*
G01X0022074Y0021574D01*
G54D16*
G01X0026922Y0028178D02*
G01X0020483Y0028178D01*
G01X0020483Y0028178D02*
G01X0020798Y0028048D01*
G01X0020798Y0028048D02*
G01X0021024Y0027500D01*
G01X0021024Y0027500D02*
G01X0020814Y0026993D01*
G01X0020814Y0026993D02*
G01X0021300Y0027194D01*
G01X0021300Y0027194D02*
G01X0022074Y0026874D01*
G01X0022074Y0026874D02*
G01X0022394Y0026100D01*
G01X0022394Y0026100D02*
G01X0022081Y0025344D01*
G01X0022081Y0025344D02*
G01X0022500Y0025518D01*
G01X0022500Y0025518D02*
G01X0022599Y0025477D01*
G01X0022599Y0025477D02*
G01X0022599Y0026661D01*
G01X0022599Y0026661D02*
G01X0022599Y0026821D01*
G01X0022599Y0026821D02*
G01X0022660Y0026968D01*
G01X0022660Y0026968D02*
G01X0022773Y0027081D01*
G01X0022773Y0027081D02*
G01X0023419Y0027727D01*
G01X0023419Y0027727D02*
G01X0023532Y0027840D01*
G01X0023532Y0027840D02*
G01X0023679Y0027901D01*
G01X0023679Y0027901D02*
G01X0026455Y0027901D01*
G01X0026455Y0027901D02*
G01X0026498Y0028002D01*
G01X0026498Y0028002D02*
G01X0026922Y0028178D01*
G01X0022159Y0025532D02*
G01X0022599Y0025532D01*
G01X0022236Y0025719D02*
G01X0022599Y0025719D01*
G01X0022314Y0025907D02*
G01X0022599Y0025907D01*
G01X0022392Y0026094D02*
G01X0022599Y0026094D01*
G01X0022319Y0026282D02*
G01X0022599Y0026282D01*
G01X0022241Y0026469D02*
G01X0022599Y0026469D01*
G01X0022163Y0026657D02*
G01X0022599Y0026657D01*
G01X0022086Y0026844D02*
G01X0022609Y0026844D01*
G01X0020831Y0027032D02*
G01X0020909Y0027032D01*
G01X0021691Y0027032D02*
G01X0022724Y0027032D01*
G01X0020908Y0027219D02*
G01X0022912Y0027219D01*
G01X0020986Y0027407D02*
G01X0023099Y0027407D01*
G01X0020985Y0027594D02*
G01X0023287Y0027594D01*
G01X0020908Y0027782D02*
G01X0023474Y0027782D01*
G01X0020830Y0027969D02*
G01X0026484Y0027969D01*
G01X0020534Y0028157D02*
G01X0026871Y0028157D01*
G54D12*
G01X0021644Y0025756D02*
G01X0022081Y0025344D01*
G01X0021644Y0026444D02*
G01X0022074Y0026874D01*
G54D16*
G01X0033767Y0028178D02*
G01X0029078Y0028178D01*
G01X0029078Y0028178D02*
G01X0029502Y0028002D01*
G01X0029502Y0028002D02*
G01X0029711Y0027500D01*
G01X0029711Y0027500D02*
G01X0029503Y0027000D01*
G01X0029503Y0027000D02*
G01X0029711Y0026500D01*
G01X0029711Y0026500D02*
G01X0029502Y0025998D01*
G01X0029502Y0025998D02*
G01X0029000Y0025789D01*
G01X0029000Y0025789D02*
G01X0028878Y0025840D01*
G01X0028878Y0025840D02*
G01X0028409Y0025371D01*
G01X0028409Y0025371D02*
G01X0032443Y0025371D01*
G01X0032443Y0025371D02*
G01X0032457Y0025403D01*
G01X0032457Y0025403D02*
G01X0032419Y0025419D01*
G01X0032419Y0025419D02*
G01X0032344Y0025601D01*
G01X0032344Y0025601D02*
G01X0032344Y0026399D01*
G01X0032344Y0026399D02*
G01X0032419Y0026581D01*
G01X0032419Y0026581D02*
G01X0032601Y0026656D01*
G01X0032601Y0026656D02*
G01X0033399Y0026656D01*
G01X0033399Y0026656D02*
G01X0033581Y0026581D01*
G01X0033581Y0026581D02*
G01X0033596Y0026543D01*
G01X0033596Y0026543D02*
G01X0034000Y0026711D01*
G01X0034000Y0026711D02*
G01X0034502Y0026502D01*
G01X0034502Y0026502D02*
G01X0034711Y0026000D01*
G01X0034711Y0026000D02*
G01X0034503Y0025500D01*
G01X0034503Y0025500D02*
G01X0034711Y0025000D01*
G01X0034711Y0025000D02*
G01X0034503Y0024500D01*
G01X0034503Y0024500D02*
G01X0034711Y0024000D01*
G01X0034711Y0024000D02*
G01X0034503Y0023500D01*
G01X0034503Y0023500D02*
G01X0034711Y0023000D01*
G01X0034711Y0023000D02*
G01X0034503Y0022500D01*
G01X0034503Y0022500D02*
G01X0034711Y0022000D01*
G01X0034711Y0022000D02*
G01X0034503Y0021500D01*
G01X0034503Y0021500D02*
G01X0034711Y0021000D01*
G01X0034711Y0021000D02*
G01X0034503Y0020500D01*
G01X0034503Y0020500D02*
G01X0034711Y0020000D01*
G01X0034711Y0020000D02*
G01X0034502Y0019498D01*
G01X0034502Y0019498D02*
G01X0034000Y0019289D01*
G01X0034000Y0019289D02*
G01X0033500Y0019496D01*
G01X0033500Y0019496D02*
G01X0033000Y0019289D01*
G01X0033000Y0019289D02*
G01X0032498Y0019498D01*
G01X0032498Y0019498D02*
G01X0032289Y0020000D01*
G01X0032289Y0020000D02*
G01X0032339Y0020119D01*
G01X0032339Y0020119D02*
G01X0030337Y0020119D01*
G01X0030337Y0020119D02*
G01X0030262Y0020119D01*
G01X0030262Y0020119D02*
G01X0030262Y0020119D01*
G01X0030262Y0020119D02*
G01X0030261Y0020119D01*
G01X0030261Y0020119D02*
G01X0030191Y0020148D01*
G01X0030191Y0020148D02*
G01X0030122Y0020177D01*
G01X0030122Y0020177D02*
G01X0030122Y0020177D01*
G01X0030122Y0020177D02*
G01X0030121Y0020177D01*
G01X0030121Y0020177D02*
G01X0030068Y0020231D01*
G01X0030068Y0020231D02*
G01X0027723Y0022567D01*
G01X0027723Y0022567D02*
G01X0027669Y0022620D01*
G01X0027669Y0022620D02*
G01X0027669Y0022621D01*
G01X0027669Y0022621D02*
G01X0027669Y0022621D01*
G01X0027669Y0022621D02*
G01X0027640Y0022690D01*
G01X0027640Y0022690D02*
G01X0027611Y0022760D01*
G01X0027611Y0022760D02*
G01X0027611Y0022761D01*
G01X0027611Y0022761D02*
G01X0027611Y0022761D01*
G01X0027611Y0022761D02*
G01X0027611Y0022835D01*
G01X0027611Y0022835D02*
G01X0027607Y0023848D01*
G01X0027607Y0023848D02*
G01X0027601Y0023851D01*
G01X0027601Y0023851D02*
G01X0027597Y0023860D01*
G01X0027597Y0023860D02*
G01X0027121Y0023385D01*
G01X0027121Y0023385D02*
G01X0027121Y0022911D01*
G01X0027121Y0022911D02*
G01X0027149Y0022899D01*
G01X0027149Y0022899D02*
G01X0027315Y0022500D01*
G01X0027315Y0022500D02*
G01X0027149Y0022101D01*
G01X0027149Y0022101D02*
G01X0026750Y0021935D01*
G01X0026750Y0021935D02*
G01X0026351Y0022101D01*
G01X0026351Y0022101D02*
G01X0026185Y0022500D01*
G01X0026185Y0022500D02*
G01X0026351Y0022899D01*
G01X0026351Y0022899D02*
G01X0026379Y0022911D01*
G01X0026379Y0022911D02*
G01X0026379Y0023031D01*
G01X0026379Y0023031D02*
G01X0025621Y0022273D01*
G01X0025621Y0022273D02*
G01X0025621Y0021411D01*
G01X0025621Y0021411D02*
G01X0025649Y0021399D01*
G01X0025649Y0021399D02*
G01X0025815Y0021000D01*
G01X0025815Y0021000D02*
G01X0025649Y0020601D01*
G01X0025649Y0020601D02*
G01X0025250Y0020435D01*
G01X0025250Y0020435D02*
G01X0024851Y0020601D01*
G01X0024851Y0020601D02*
G01X0024685Y0021000D01*
G01X0024685Y0021000D02*
G01X0024851Y0021399D01*
G01X0024851Y0021399D02*
G01X0024879Y0021411D01*
G01X0024879Y0021411D02*
G01X0024879Y0021989D01*
G01X0024879Y0021989D02*
G01X0024750Y0021935D01*
G01X0024750Y0021935D02*
G01X0024351Y0022101D01*
G01X0024351Y0022101D02*
G01X0024185Y0022500D01*
G01X0024185Y0022500D02*
G01X0024351Y0022899D01*
G01X0024351Y0022899D02*
G01X0024369Y0022907D01*
G01X0024369Y0022907D02*
G01X0024369Y0023588D01*
G01X0024369Y0023588D02*
G01X0024000Y0023435D01*
G01X0024000Y0023435D02*
G01X0023601Y0023601D01*
G01X0023601Y0023601D02*
G01X0023435Y0024000D01*
G01X0023435Y0024000D02*
G01X0023513Y0024187D01*
G01X0023513Y0024187D02*
G01X0023500Y0024182D01*
G01X0023500Y0024182D02*
G01X0023401Y0024223D01*
G01X0023401Y0024223D02*
G01X0023401Y0022777D01*
G01X0023401Y0022777D02*
G01X0023500Y0022818D01*
G01X0023500Y0022818D02*
G01X0023972Y0022622D01*
G01X0023972Y0022622D02*
G01X0024168Y0022150D01*
G01X0024168Y0022150D02*
G01X0023972Y0021678D01*
G01X0023972Y0021678D02*
G01X0023500Y0021482D01*
G01X0023500Y0021482D02*
G01X0023401Y0021523D01*
G01X0023401Y0021523D02*
G01X0023401Y0020045D01*
G01X0023401Y0020045D02*
G01X0023500Y0020003D01*
G01X0023500Y0020003D02*
G01X0024000Y0020211D01*
G01X0024000Y0020211D02*
G01X0024500Y0020003D01*
G01X0024500Y0020003D02*
G01X0025000Y0020211D01*
G01X0025000Y0020211D02*
G01X0025502Y0020002D01*
G01X0025502Y0020002D02*
G01X0025711Y0019500D01*
G01X0025711Y0019500D02*
G01X0025503Y0019000D01*
G01X0025503Y0019000D02*
G01X0025711Y0018500D01*
G01X0025711Y0018500D02*
G01X0025502Y0017998D01*
G01X0025502Y0017998D02*
G01X0025078Y0017822D01*
G01X0025078Y0017822D02*
G01X0030268Y0017822D01*
G01X0030268Y0017822D02*
G01X0030268Y0018812D01*
G01X0030268Y0018812D02*
G01X0033355Y0018812D01*
G01X0033355Y0018812D02*
G01X0033452Y0019048D01*
G01X0033452Y0019048D02*
G01X0034000Y0019274D01*
G01X0034000Y0019274D02*
G01X0034548Y0019048D01*
G01X0034548Y0019048D02*
G01X0034750Y0018559D01*
G01X0034750Y0018559D02*
G01X0034750Y0027441D01*
G01X0034750Y0027441D02*
G01X0034548Y0026952D01*
G01X0034548Y0026952D02*
G01X0034000Y0026725D01*
G01X0034000Y0026725D02*
G01X0033452Y0026952D01*
G01X0033452Y0026952D02*
G01X0033225Y0027500D01*
G01X0033225Y0027500D02*
G01X0033452Y0028048D01*
G01X0033452Y0028048D02*
G01X0033767Y0028178D01*
G01X0029752Y0019502D02*
G01X0029961Y0019000D01*
G01X0029961Y0019000D02*
G01X0029752Y0018498D01*
G01X0029752Y0018498D02*
G01X0029250Y0018289D01*
G01X0029250Y0018289D02*
G01X0028748Y0018498D01*
G01X0028748Y0018498D02*
G01X0028729Y0018543D01*
G01X0028729Y0018543D02*
G01X0028722Y0018528D01*
G01X0028722Y0018528D02*
G01X0028250Y0018332D01*
G01X0028250Y0018332D02*
G01X0027778Y0018528D01*
G01X0027778Y0018528D02*
G01X0027771Y0018543D01*
G01X0027771Y0018543D02*
G01X0027752Y0018498D01*
G01X0027752Y0018498D02*
G01X0027250Y0018289D01*
G01X0027250Y0018289D02*
G01X0026748Y0018498D01*
G01X0026748Y0018498D02*
G01X0026539Y0019000D01*
G01X0026539Y0019000D02*
G01X0026748Y0019502D01*
G01X0026748Y0019502D02*
G01X0027250Y0019711D01*
G01X0027250Y0019711D02*
G01X0027752Y0019502D01*
G01X0027752Y0019502D02*
G01X0027771Y0019457D01*
G01X0027771Y0019457D02*
G01X0027778Y0019472D01*
G01X0027778Y0019472D02*
G01X0028250Y0019668D01*
G01X0028250Y0019668D02*
G01X0028722Y0019472D01*
G01X0028722Y0019472D02*
G01X0028729Y0019457D01*
G01X0028729Y0019457D02*
G01X0028748Y0019502D01*
G01X0028748Y0019502D02*
G01X0029250Y0019711D01*
G01X0029250Y0019711D02*
G01X0029752Y0019502D01*
G01X0025078Y0017822D02*
G01X0030268Y0017822D01*
G01X0025507Y0018009D02*
G01X0030268Y0018009D01*
G01X0025585Y0018197D02*
G01X0030268Y0018197D01*
G01X0025663Y0018384D02*
G01X0027021Y0018384D01*
G01X0027479Y0018384D02*
G01X0028124Y0018384D01*
G01X0028376Y0018384D02*
G01X0029021Y0018384D01*
G01X0029479Y0018384D02*
G01X0030268Y0018384D01*
G01X0025681Y0018572D02*
G01X0026717Y0018572D01*
G01X0029783Y0018572D02*
G01X0030268Y0018572D01*
G01X0034745Y0018572D02*
G01X0034750Y0018572D01*
G01X0025603Y0018759D02*
G01X0026639Y0018759D01*
G01X0029861Y0018759D02*
G01X0030268Y0018759D01*
G01X0034667Y0018759D02*
G01X0034750Y0018759D01*
G01X0025525Y0018947D02*
G01X0026561Y0018947D01*
G01X0029939Y0018947D02*
G01X0033411Y0018947D01*
G01X0034589Y0018947D02*
G01X0034750Y0018947D01*
G01X0025559Y0019134D02*
G01X0026595Y0019134D01*
G01X0029905Y0019134D02*
G01X0033662Y0019134D01*
G01X0034338Y0019134D02*
G01X0034750Y0019134D01*
G01X0025637Y0019322D02*
G01X0026673Y0019322D01*
G01X0029827Y0019322D02*
G01X0032922Y0019322D01*
G01X0033078Y0019322D02*
G01X0033922Y0019322D01*
G01X0034078Y0019322D02*
G01X0034750Y0019322D01*
G01X0025707Y0019509D02*
G01X0026764Y0019509D01*
G01X0027736Y0019509D02*
G01X0027867Y0019509D01*
G01X0028633Y0019509D02*
G01X0028764Y0019509D01*
G01X0029736Y0019509D02*
G01X0032493Y0019509D01*
G01X0034507Y0019509D02*
G01X0034750Y0019509D01*
G01X0025629Y0019697D02*
G01X0027217Y0019697D01*
G01X0027283Y0019697D02*
G01X0029217Y0019697D01*
G01X0029283Y0019697D02*
G01X0032415Y0019697D01*
G01X0034585Y0019697D02*
G01X0034750Y0019697D01*
G01X0025551Y0019884D02*
G01X0032337Y0019884D01*
G01X0034663Y0019884D02*
G01X0034750Y0019884D01*
G01X0023401Y0020072D02*
G01X0023665Y0020072D01*
G01X0024335Y0020072D02*
G01X0024665Y0020072D01*
G01X0025335Y0020072D02*
G01X0032319Y0020072D01*
G01X0034681Y0020072D02*
G01X0034750Y0020072D01*
G01X0023401Y0020259D02*
G01X0030039Y0020259D01*
G01X0034603Y0020259D02*
G01X0034750Y0020259D01*
G01X0023401Y0020447D02*
G01X0025222Y0020447D01*
G01X0025278Y0020447D02*
G01X0029851Y0020447D01*
G01X0034525Y0020447D02*
G01X0034750Y0020447D01*
G01X0023401Y0020634D02*
G01X0024837Y0020634D01*
G01X0025663Y0020634D02*
G01X0029663Y0020634D01*
G01X0034559Y0020634D02*
G01X0034750Y0020634D01*
G01X0023401Y0020822D02*
G01X0024759Y0020822D01*
G01X0025741Y0020822D02*
G01X0029475Y0020822D01*
G01X0034637Y0020822D02*
G01X0034750Y0020822D01*
G01X0023401Y0021009D02*
G01X0024689Y0021009D01*
G01X0025811Y0021009D02*
G01X0029286Y0021009D01*
G01X0034707Y0021009D02*
G01X0034750Y0021009D01*
G01X0023401Y0021197D02*
G01X0024767Y0021197D01*
G01X0025733Y0021197D02*
G01X0029098Y0021197D01*
G01X0034629Y0021197D02*
G01X0034750Y0021197D01*
G01X0023401Y0021384D02*
G01X0024844Y0021384D01*
G01X0025656Y0021384D02*
G01X0028910Y0021384D01*
G01X0034551Y0021384D02*
G01X0034750Y0021384D01*
G01X0023717Y0021572D02*
G01X0024879Y0021572D01*
G01X0025621Y0021572D02*
G01X0028722Y0021572D01*
G01X0034533Y0021572D02*
G01X0034750Y0021572D01*
G01X0024006Y0021759D02*
G01X0024879Y0021759D01*
G01X0025621Y0021759D02*
G01X0028534Y0021759D01*
G01X0034611Y0021759D02*
G01X0034750Y0021759D01*
G01X0024084Y0021947D02*
G01X0024722Y0021947D01*
G01X0024778Y0021947D02*
G01X0024879Y0021947D01*
G01X0025621Y0021947D02*
G01X0026722Y0021947D01*
G01X0026778Y0021947D02*
G01X0028346Y0021947D01*
G01X0034689Y0021947D02*
G01X0034750Y0021947D01*
G01X0024161Y0022134D02*
G01X0024337Y0022134D01*
G01X0025621Y0022134D02*
G01X0026337Y0022134D01*
G01X0027163Y0022134D02*
G01X0028157Y0022134D01*
G01X0034655Y0022134D02*
G01X0034750Y0022134D01*
G01X0024097Y0022322D02*
G01X0024259Y0022322D01*
G01X0025670Y0022322D02*
G01X0026259Y0022322D01*
G01X0027241Y0022322D02*
G01X0027969Y0022322D01*
G01X0034577Y0022322D02*
G01X0034750Y0022322D01*
G01X0024019Y0022509D02*
G01X0024189Y0022509D01*
G01X0025857Y0022509D02*
G01X0026189Y0022509D01*
G01X0027311Y0022509D02*
G01X0027781Y0022509D01*
G01X0034507Y0022509D02*
G01X0034750Y0022509D01*
G01X0023792Y0022697D02*
G01X0024267Y0022697D01*
G01X0026045Y0022697D02*
G01X0026267Y0022697D01*
G01X0027233Y0022697D02*
G01X0027637Y0022697D01*
G01X0034585Y0022697D02*
G01X0034750Y0022697D01*
G01X0023401Y0022884D02*
G01X0024344Y0022884D01*
G01X0026232Y0022884D02*
G01X0026344Y0022884D01*
G01X0027156Y0022884D02*
G01X0027610Y0022884D01*
G01X0034663Y0022884D02*
G01X0034750Y0022884D01*
G01X0023401Y0023072D02*
G01X0024369Y0023072D01*
G01X0027121Y0023072D02*
G01X0027610Y0023072D01*
G01X0034681Y0023072D02*
G01X0034750Y0023072D01*
G01X0023401Y0023259D02*
G01X0024369Y0023259D01*
G01X0027121Y0023259D02*
G01X0027609Y0023259D01*
G01X0034603Y0023259D02*
G01X0034750Y0023259D01*
G01X0023401Y0023447D02*
G01X0023972Y0023447D01*
G01X0024028Y0023447D02*
G01X0024369Y0023447D01*
G01X0027183Y0023447D02*
G01X0027608Y0023447D01*
G01X0034525Y0023447D02*
G01X0034750Y0023447D01*
G01X0023401Y0023634D02*
G01X0023587Y0023634D01*
G01X0027371Y0023634D02*
G01X0027608Y0023634D01*
G01X0034559Y0023634D02*
G01X0034750Y0023634D01*
G01X0023401Y0023822D02*
G01X0023509Y0023822D01*
G01X0027558Y0023822D02*
G01X0027607Y0023822D01*
G01X0034637Y0023822D02*
G01X0034750Y0023822D01*
G01X0023401Y0024009D02*
G01X0023439Y0024009D01*
G01X0034707Y0024009D02*
G01X0034750Y0024009D01*
G01X0023401Y0024197D02*
G01X0023464Y0024197D01*
G01X0034629Y0024197D02*
G01X0034750Y0024197D01*
G01X0034551Y0024384D02*
G01X0034750Y0024384D01*
G01X0034533Y0024572D02*
G01X0034750Y0024572D01*
G01X0034611Y0024759D02*
G01X0034750Y0024759D01*
G01X0034689Y0024947D02*
G01X0034750Y0024947D01*
G01X0034655Y0025134D02*
G01X0034750Y0025134D01*
G01X0034577Y0025322D02*
G01X0034750Y0025322D01*
G01X0028547Y0025509D02*
G01X0032382Y0025509D01*
G01X0034507Y0025509D02*
G01X0034750Y0025509D01*
G01X0028735Y0025697D02*
G01X0032344Y0025697D01*
G01X0034585Y0025697D02*
G01X0034750Y0025697D01*
G01X0029229Y0025884D02*
G01X0032344Y0025884D01*
G01X0034663Y0025884D02*
G01X0034750Y0025884D01*
G01X0029533Y0026072D02*
G01X0032344Y0026072D01*
G01X0034681Y0026072D02*
G01X0034750Y0026072D01*
G01X0029611Y0026259D02*
G01X0032344Y0026259D01*
G01X0034603Y0026259D02*
G01X0034750Y0026259D01*
G01X0029689Y0026447D02*
G01X0032363Y0026447D01*
G01X0034525Y0026447D02*
G01X0034750Y0026447D01*
G01X0029655Y0026634D02*
G01X0032548Y0026634D01*
G01X0033452Y0026634D02*
G01X0033816Y0026634D01*
G01X0034184Y0026634D02*
G01X0034750Y0026634D01*
G01X0029577Y0026822D02*
G01X0033767Y0026822D01*
G01X0034233Y0026822D02*
G01X0034750Y0026822D01*
G01X0029507Y0027009D02*
G01X0033429Y0027009D01*
G01X0034571Y0027009D02*
G01X0034750Y0027009D01*
G01X0029585Y0027197D02*
G01X0033351Y0027197D01*
G01X0034649Y0027197D02*
G01X0034750Y0027197D01*
G01X0029663Y0027384D02*
G01X0033273Y0027384D01*
G01X0034727Y0027384D02*
G01X0034750Y0027384D01*
G01X0029681Y0027572D02*
G01X0033255Y0027572D01*
G01X0029603Y0027759D02*
G01X0033333Y0027759D01*
G01X0029525Y0027947D02*
G01X0033411Y0027947D01*
G01X0029184Y0028134D02*
G01X0033662Y0028134D01*
G54D12*
G01X0024833Y0019667D02*
G01X0024494Y0020006D01*
G01X0025167Y0019333D02*
G01X0025506Y0018994D01*
G01X0025167Y0019667D02*
G01X0025502Y0020002D01*
G01X0028398Y0019148D02*
G01X0028722Y0019472D01*
G01X0028102Y0019148D02*
G01X0027778Y0019472D01*
G01X0028102Y0018852D02*
G01X0027778Y0018528D01*
G01X0028398Y0018852D02*
G01X0028722Y0018528D01*
G01X0029167Y0027333D02*
G01X0029506Y0026994D01*
G01X0029167Y0027667D02*
G01X0029502Y0028002D01*
G01X0034167Y0020167D02*
G01X0034506Y0020506D01*
G01X0033833Y0019833D02*
G01X0033500Y0019496D01*
G01X0034167Y0019833D02*
G01X0034502Y0019498D01*
G01X0033260Y0026260D02*
G01X0033581Y0026581D01*
G01X0032740Y0026260D02*
G01X0032419Y0026581D01*
G01X0032740Y0025740D02*
G01X0032419Y0025419D01*
G54D41*
G01X0024750Y0022500D03*
G01X0024500Y0026500D03*
G01X0025250Y0025000D03*
G54D23*
G01X0028250Y0019000D03*
G54D41*
G01X0028500Y0023500D03*
G01X0028500Y0024450D03*
G01X0031250Y0022500D03*
G01X0031500Y0022000D03*
G01X0025250Y0021000D03*
G01X0028000Y0024250D03*
G01X0030750Y0021000D03*
G01X0026750Y0022500D03*
G01X0024000Y0024000D03*
G01X0024000Y0027000D03*
G54D25*
G01X0027000Y0027500D03*
G01X0028000Y0027500D03*
G01X0029000Y0027500D03*
G54D36*
G01X0027000Y0026500D03*
G54D25*
G01X0028000Y0026500D03*
G01X0029000Y0026500D03*
G54D23*
G01X0022500Y0022150D03*
G01X0023500Y0022150D03*
G54D29*
G01X0022500Y0023000D03*
G54D23*
G01X0022500Y0024850D03*
G01X0023500Y0024850D03*
G01X0022500Y0024000D03*
G54D21*
G01X0021000Y0023500D03*
G01X0021300Y0020800D03*
G01X0021300Y0026100D03*
G54D25*
G01X0034000Y0021000D03*
G01X0034000Y0022000D03*
G01X0034000Y0024000D03*
G01X0034000Y0025000D03*
G01X0034000Y0020000D03*
G01X0034000Y0023000D03*
G01X0034000Y0026000D03*
G01X0033000Y0021000D03*
G01X0033000Y0022000D03*
G01X0033000Y0024000D03*
G01X0033000Y0025000D03*
G01X0033000Y0020000D03*
G01X0033000Y0023000D03*
G54D33*
G01X0033000Y0026000D03*
G54D25*
G01X0023000Y0019500D03*
G01X0024000Y0019500D03*
G01X0025000Y0019500D03*
G54D33*
G01X0023000Y0018500D03*
G54D25*
G01X0024000Y0018500D03*
G01X0025000Y0018500D03*
G01X0027250Y0019000D03*
G01X0029250Y0019000D03*
M02*
