G04 This is an RS-274x file exported by *
G04 gerbv version 2.6A *
G04 More information is available about gerbv at *
G04 http://gerbv.geda-project.org/ *
G04 --End of header info--*
%MOIN*%
%FSLAX34Y34*%
%IPPOS*%
%INKB4Y805__.GTL*%
G04 --Define apertures--*
%ADD10C,0.0100*%
%ADD11C,0.0118*%
%ADD12C,0.0150*%
%ADD13C,0.0157*%
%ADD14C,0.0197*%
%ADD15C,0.0020*%
%ADD16C,0.0250*%
%ADD17C,0.0039*%
%ADD18C,0.0050*%
%ADD19C,0.0079*%
%ADD20C,0.0098*%
%ADD21C,0.1378*%
%ADD22C,0.1438*%
%ADD23C,0.0591*%
%ADD24C,0.0650*%
%ADD25C,0.0669*%
%ADD26C,0.0729*%
%ADD27C,0.0847*%
%AMMACRO28*
1,1,0.078740,0.000000,0.000000*
1,0,0.058740,0.000000,0.000000*
21,1,0.068740,0.005000,0.000000,0.000000,0.000000*
21,1,0.005000,0.068740,0.000000,0.000000,0.000000*
%
%ADD28MACRO28*%
%ADD29R,0.0591X0.0591*%
%ADD30R,0.0600X0.0560*%
%ADD31R,0.0650X0.0650*%
%ADD32R,0.0660X0.0620*%
%ADD33R,0.0669X0.0669*%
%ADD34R,0.0729X0.0729*%
%ADD35R,0.0748X0.0630*%
%ADD36R,0.0787X0.0787*%
%ADD37R,0.0800X0.0260*%
%ADD38R,0.0808X0.0690*%
%ADD39R,0.0847X0.0847*%
%ADD40R,0.0860X0.0320*%
%ADD41C,0.0400*%
%ADD42C,0.0460*%
G04 --Start main section--*
G54D20*
G01X0022250Y0020250D02*
G01X0022250Y0018755D01*
G01X0022505Y0018500D02*
G01X0023000Y0018500D01*
G01X0022250Y0018755D02*
G01X0022505Y0018500D01*
G01X0022250Y0020250D02*
G01X0022258Y0020250D01*
G01X0022500Y0023000D02*
G01X0023000Y0023000D01*
G54D11*
G01X0023500Y0022150D02*
G01X0023500Y0023500D01*
G54D20*
G01X0023000Y0024250D02*
G01X0023650Y0024250D01*
G01X0023650Y0024256D02*
G01X0023650Y0024250D01*
G01X0023894Y0024500D02*
G01X0023650Y0024256D01*
G01X0023000Y0024250D02*
G01X0023000Y0026725D01*
G54D19*
G01X0021174Y0028167D02*
G01X0021174Y0027779D01*
G01X0021432Y0028167D02*
G01X0021174Y0027908D01*
G01X0021266Y0028001D02*
G01X0021432Y0027779D01*
G01X0021561Y0028167D02*
G01X0021561Y0027779D01*
G01X0021561Y0027779D02*
G01X0021727Y0027779D01*
G01X0021727Y0027779D02*
G01X0021783Y0027798D01*
G01X0021783Y0027798D02*
G01X0021801Y0027816D01*
G01X0021801Y0027816D02*
G01X0021820Y0027853D01*
G01X0021820Y0027853D02*
G01X0021820Y0027908D01*
G01X0021820Y0027908D02*
G01X0021801Y0027945D01*
G01X0021801Y0027945D02*
G01X0021783Y0027964D01*
G01X0021783Y0027964D02*
G01X0021727Y0027982D01*
G01X0021727Y0027982D02*
G01X0021783Y0028001D01*
G01X0021783Y0028001D02*
G01X0021801Y0028019D01*
G01X0021801Y0028019D02*
G01X0021820Y0028056D01*
G01X0021820Y0028056D02*
G01X0021820Y0028093D01*
G01X0021820Y0028093D02*
G01X0021801Y0028130D01*
G01X0021801Y0028130D02*
G01X0021783Y0028148D01*
G01X0021783Y0028148D02*
G01X0021727Y0028167D01*
G01X0021727Y0028167D02*
G01X0021561Y0028167D01*
G01X0021561Y0027982D02*
G01X0021727Y0027982D01*
G01X0022115Y0027779D02*
G01X0022115Y0028167D01*
G01X0022115Y0028167D02*
G01X0021930Y0027908D01*
G01X0021930Y0027908D02*
G01X0022207Y0027908D01*
G01X0022263Y0028167D02*
G01X0022410Y0027982D01*
G01X0022410Y0027982D02*
G01X0022410Y0027779D01*
G01X0022558Y0028167D02*
G01X0022410Y0027982D01*
G01X0022724Y0028167D02*
G01X0022669Y0028148D01*
G01X0022669Y0028148D02*
G01X0022650Y0028111D01*
G01X0022650Y0028111D02*
G01X0022650Y0028074D01*
G01X0022650Y0028074D02*
G01X0022669Y0028038D01*
G01X0022669Y0028038D02*
G01X0022706Y0028019D01*
G01X0022706Y0028019D02*
G01X0022779Y0028001D01*
G01X0022779Y0028001D02*
G01X0022835Y0027982D01*
G01X0022835Y0027982D02*
G01X0022872Y0027945D01*
G01X0022872Y0027945D02*
G01X0022890Y0027908D01*
G01X0022890Y0027908D02*
G01X0022890Y0027853D01*
G01X0022890Y0027853D02*
G01X0022872Y0027816D01*
G01X0022872Y0027816D02*
G01X0022853Y0027798D01*
G01X0022853Y0027798D02*
G01X0022798Y0027779D01*
G01X0022798Y0027779D02*
G01X0022724Y0027779D01*
G01X0022724Y0027779D02*
G01X0022669Y0027798D01*
G01X0022669Y0027798D02*
G01X0022650Y0027816D01*
G01X0022650Y0027816D02*
G01X0022632Y0027853D01*
G01X0022632Y0027853D02*
G01X0022632Y0027908D01*
G01X0022632Y0027908D02*
G01X0022650Y0027945D01*
G01X0022650Y0027945D02*
G01X0022687Y0027982D01*
G01X0022687Y0027982D02*
G01X0022742Y0028001D01*
G01X0022742Y0028001D02*
G01X0022816Y0028019D01*
G01X0022816Y0028019D02*
G01X0022853Y0028038D01*
G01X0022853Y0028038D02*
G01X0022872Y0028074D01*
G01X0022872Y0028074D02*
G01X0022872Y0028111D01*
G01X0022872Y0028111D02*
G01X0022853Y0028148D01*
G01X0022853Y0028148D02*
G01X0022798Y0028167D01*
G01X0022798Y0028167D02*
G01X0022724Y0028167D01*
G01X0023112Y0028167D02*
G01X0023056Y0028148D01*
G01X0023056Y0028148D02*
G01X0023019Y0028093D01*
G01X0023019Y0028093D02*
G01X0023001Y0028001D01*
G01X0023001Y0028001D02*
G01X0023001Y0027945D01*
G01X0023001Y0027945D02*
G01X0023019Y0027853D01*
G01X0023019Y0027853D02*
G01X0023056Y0027798D01*
G01X0023056Y0027798D02*
G01X0023112Y0027779D01*
G01X0023112Y0027779D02*
G01X0023148Y0027779D01*
G01X0023148Y0027779D02*
G01X0023204Y0027798D01*
G01X0023204Y0027798D02*
G01X0023241Y0027853D01*
G01X0023241Y0027853D02*
G01X0023259Y0027945D01*
G01X0023259Y0027945D02*
G01X0023259Y0028001D01*
G01X0023259Y0028001D02*
G01X0023241Y0028093D01*
G01X0023241Y0028093D02*
G01X0023204Y0028148D01*
G01X0023204Y0028148D02*
G01X0023148Y0028167D01*
G01X0023148Y0028167D02*
G01X0023112Y0028167D01*
G01X0023241Y0028093D02*
G01X0023019Y0027853D01*
G01X0023591Y0028167D02*
G01X0023407Y0028167D01*
G01X0023407Y0028167D02*
G01X0023388Y0028001D01*
G01X0023388Y0028001D02*
G01X0023407Y0028019D01*
G01X0023407Y0028019D02*
G01X0023462Y0028038D01*
G01X0023462Y0028038D02*
G01X0023518Y0028038D01*
G01X0023518Y0028038D02*
G01X0023573Y0028019D01*
G01X0023573Y0028019D02*
G01X0023610Y0027982D01*
G01X0023610Y0027982D02*
G01X0023628Y0027927D01*
G01X0023628Y0027927D02*
G01X0023628Y0027890D01*
G01X0023628Y0027890D02*
G01X0023610Y0027835D01*
G01X0023610Y0027835D02*
G01X0023573Y0027798D01*
G01X0023573Y0027798D02*
G01X0023518Y0027779D01*
G01X0023518Y0027779D02*
G01X0023462Y0027779D01*
G01X0023462Y0027779D02*
G01X0023407Y0027798D01*
G01X0023407Y0027798D02*
G01X0023388Y0027816D01*
G01X0023388Y0027816D02*
G01X0023370Y0027853D01*
G54D20*
G01X0024994Y0018500D02*
G01X0025000Y0018500D01*
G01X0024500Y0018994D02*
G01X0024994Y0018500D01*
G54D14*
G01X0026000Y0020500D02*
G01X0025432Y0020500D01*
G01X0025000Y0020068D02*
G01X0025000Y0019500D01*
G01X0025432Y0020500D02*
G01X0025000Y0020068D01*
G54D20*
G01X0026000Y0022500D02*
G01X0026750Y0022500D01*
G01X0026806Y0023500D02*
G01X0026000Y0023500D01*
G01X0026000Y0021500D02*
G01X0025015Y0021500D01*
G01X0026000Y0022000D02*
G01X0025103Y0022000D01*
G54D11*
G01X0024750Y0022500D02*
G01X0026000Y0022500D01*
G54D20*
G01X0026908Y0023000D02*
G01X0026000Y0023000D01*
G01X0025000Y0026500D02*
G01X0024500Y0026500D01*
G01X0024500Y0025373D02*
G01X0024873Y0025000D01*
G01X0024873Y0025000D02*
G01X0025250Y0025000D01*
G01X0025250Y0025000D02*
G01X0026000Y0025000D01*
G01X0025000Y0025750D02*
G01X0024642Y0025750D01*
G01X0024500Y0025608D02*
G01X0024500Y0025373D01*
G01X0024642Y0025750D02*
G01X0024500Y0025608D01*
G54D11*
G01X0026350Y0025750D02*
G01X0025900Y0025750D01*
G01X0026350Y0026500D02*
G01X0025900Y0026500D01*
G01X0026350Y0026500D02*
G01X0026350Y0025750D01*
G01X0025000Y0027250D02*
G01X0024247Y0027250D01*
G54D20*
G01X0025000Y0028000D02*
G01X0024275Y0028000D01*
G54D11*
G01X0026350Y0027250D02*
G01X0025900Y0027250D01*
G01X0026350Y0028000D02*
G01X0025900Y0028000D01*
G01X0026350Y0028000D02*
G01X0026350Y0027250D01*
G54D20*
G01X0027250Y0018726D02*
G01X0027476Y0018500D01*
G01X0029000Y0020374D02*
G01X0029374Y0020000D01*
G01X0027500Y0020944D02*
G01X0029250Y0019200D01*
G01X0027250Y0018726D02*
G01X0027250Y0019000D01*
G01X0029250Y0019000D02*
G01X0029250Y0019200D01*
G01X0029250Y0019200D02*
G01X0029350Y0019250D01*
G01X0027748Y0023850D02*
G01X0029106Y0023850D01*
G01X0029800Y0021500D02*
G01X0029199Y0021500D01*
G01X0029199Y0021500D02*
G01X0029000Y0021301D01*
G01X0029750Y0023000D02*
G01X0029800Y0023000D01*
G01X0028500Y0023500D02*
G01X0029800Y0023500D01*
G01X0028000Y0024250D02*
G01X0028000Y0024100D01*
G01X0029800Y0024500D02*
G01X0029173Y0024500D01*
G01X0029173Y0024500D02*
G01X0029000Y0024327D01*
G01X0028000Y0024100D02*
G01X0028786Y0024100D01*
G01X0029000Y0024314D02*
G01X0029000Y0024327D01*
G01X0028786Y0024100D02*
G01X0029000Y0024314D01*
G54D11*
G01X0028000Y0026500D02*
G01X0028000Y0024250D01*
G54D14*
G01X0029750Y0027500D02*
G01X0029000Y0027500D01*
G54D20*
G01X0028003Y0027500D02*
G01X0028000Y0027500D01*
G54D14*
G01X0031900Y0018500D02*
G01X0032500Y0018500D01*
G01X0032500Y0018500D02*
G01X0032500Y0019250D01*
G01X0031900Y0019250D02*
G01X0032146Y0019250D01*
G01X0032146Y0019250D02*
G01X0032500Y0019250D01*
G54D20*
G01X0032000Y0022306D02*
G01X0031306Y0023000D01*
G01X0032250Y0022464D02*
G01X0031214Y0023500D01*
G01X0032250Y0022464D02*
G01X0032250Y0022460D01*
G01X0032250Y0022460D02*
G01X0032710Y0022000D01*
G01X0032500Y0023000D02*
G01X0032500Y0023007D01*
G01X0032000Y0022306D02*
G01X0032000Y0021988D01*
G01X0032000Y0021988D02*
G01X0032488Y0021500D01*
G54D13*
G01X0031736Y0026250D02*
G01X0032000Y0026514D01*
G01X0032000Y0026514D02*
G01X0032000Y0026750D01*
G01X0032000Y0026750D02*
G01X0031500Y0026750D01*
G01X0030350Y0024776D02*
G01X0030626Y0024500D01*
G01X0030350Y0024776D02*
G01X0030350Y0025000D01*
G01X0031736Y0026250D02*
G01X0031015Y0026250D01*
G01X0031015Y0026250D02*
G01X0030350Y0025585D01*
G01X0030350Y0025000D02*
G01X0030350Y0025250D01*
G01X0030350Y0025250D02*
G01X0030350Y0025585D01*
G01X0030626Y0024500D02*
G01X0030850Y0024500D01*
G54D11*
G01X0030350Y0025250D02*
G01X0030850Y0025250D01*
G01X0031750Y0025250D02*
G01X0032650Y0025250D01*
G54D13*
G01X0032000Y0027500D02*
G01X0032000Y0027949D01*
G01X0032000Y0027949D02*
G01X0031699Y0028250D01*
G01X0031500Y0027500D02*
G01X0032000Y0027500D01*
G54D20*
G01X0034431Y0020500D02*
G01X0034750Y0020819D01*
G54D14*
G01X0033715Y0019250D02*
G01X0034000Y0019535D01*
G01X0034000Y0019535D02*
G01X0034000Y0020000D01*
G54D20*
G01X0034477Y0025000D02*
G01X0034000Y0025000D01*
G01X0034750Y0024727D02*
G01X0034477Y0025000D01*
G54D13*
G01X0034000Y0026456D02*
G01X0033706Y0026750D01*
G01X0034000Y0026000D02*
G01X0034000Y0026456D01*
G54D20*
G01X0033500Y0024500D02*
G01X0034000Y0025000D01*
G01X0022258Y0020250D02*
G01X0023000Y0020992D01*
G01X0023000Y0020992D02*
G01X0023000Y0023000D01*
G01X0023500Y0018996D02*
G01X0023500Y0022150D01*
G01X0023000Y0023000D02*
G01X0023000Y0024250D01*
G01X0026000Y0021000D02*
G01X0025250Y0021000D01*
G01X0024500Y0020985D02*
G01X0024500Y0018994D01*
G01X0025015Y0021500D02*
G01X0024500Y0020985D01*
G54D11*
G01X0026350Y0027250D02*
G01X0026350Y0026500D01*
G54D20*
G01X0029250Y0023994D02*
G01X0029250Y0024000D01*
G01X0029106Y0023850D02*
G01X0029250Y0023994D01*
G01X0027500Y0022806D02*
G01X0027500Y0020944D01*
G01X0029000Y0021301D02*
G01X0029000Y0020374D01*
G01X0027250Y0019000D02*
G01X0027250Y0022658D01*
G01X0029250Y0024000D02*
G01X0029800Y0024000D01*
G01X0028500Y0027003D02*
G01X0028003Y0027500D01*
G54D14*
G01X0029750Y0027500D02*
G01X0029750Y0026996D01*
G54D20*
G01X0032500Y0023007D02*
G01X0031507Y0024000D01*
G54D13*
G01X0032000Y0026750D02*
G01X0032000Y0027500D01*
G54D20*
G01X0034000Y0021000D02*
G01X0033500Y0021500D01*
G01X0034750Y0020819D02*
G01X0034750Y0024727D01*
G01X0028500Y0024450D02*
G01X0028500Y0027003D01*
G01X0023996Y0018500D02*
G01X0024000Y0018500D01*
G01X0023500Y0018996D02*
G01X0023996Y0018500D01*
G01X0024000Y0020897D02*
G01X0024000Y0019500D01*
G01X0027476Y0018500D02*
G01X0031000Y0018500D01*
G01X0029800Y0020500D02*
G01X0034431Y0020500D01*
G01X0029374Y0020000D02*
G01X0033000Y0020000D01*
G54D14*
G01X0033715Y0019250D02*
G01X0032500Y0019250D01*
G54D20*
G01X0029350Y0019250D02*
G01X0031000Y0019250D01*
G01X0027500Y0022806D02*
G01X0026806Y0023500D01*
G01X0027250Y0022658D02*
G01X0026908Y0023000D01*
G01X0032500Y0023000D02*
G01X0033000Y0023000D01*
G54D11*
G01X0029800Y0022500D02*
G01X0031250Y0022500D01*
G01X0029800Y0022000D02*
G01X0031500Y0022000D01*
G54D20*
G01X0029800Y0023000D02*
G01X0031306Y0023000D01*
G01X0029800Y0023500D02*
G01X0031214Y0023500D01*
G01X0032710Y0022000D02*
G01X0033000Y0022000D01*
G01X0032488Y0021500D02*
G01X0033500Y0021500D01*
G01X0027000Y0026500D02*
G01X0027000Y0024598D01*
G54D13*
G01X0033706Y0026750D02*
G01X0032000Y0026750D01*
G54D14*
G01X0029996Y0026750D02*
G01X0030600Y0026750D01*
G54D11*
G01X0032650Y0025250D02*
G01X0033000Y0025000D01*
G54D13*
G01X0030350Y0025000D02*
G01X0029800Y0025000D01*
G54D20*
G01X0031750Y0024500D02*
G01X0033500Y0024500D01*
G54D14*
G01X0030280Y0027500D02*
G01X0029750Y0027500D01*
G54D13*
G01X0031699Y0028250D02*
G01X0027237Y0028250D01*
G01X0027237Y0028250D02*
G01X0027000Y0028013D01*
G01X0027000Y0027500D02*
G01X0027000Y0028000D01*
G01X0027000Y0028000D02*
G01X0027000Y0028013D01*
G01X0026350Y0028000D02*
G01X0027000Y0028000D01*
G54D20*
G01X0025103Y0022000D02*
G01X0024000Y0020897D01*
G54D11*
G01X0024000Y0024000D02*
G01X0023500Y0023500D01*
G01X0024000Y0027003D02*
G01X0024000Y0027000D01*
G01X0024247Y0027250D02*
G01X0024000Y0027003D01*
G54D20*
G01X0024275Y0028000D02*
G01X0023000Y0026725D01*
G01X0027000Y0024598D02*
G01X0027748Y0023850D01*
G01X0030750Y0021000D02*
G01X0029800Y0021000D01*
G01X0029800Y0024000D02*
G01X0031507Y0024000D01*
G54D14*
G01X0029750Y0026996D02*
G01X0029996Y0026750D01*
G54D20*
G01X0026000Y0024500D02*
G01X0023894Y0024500D01*
G54D11*
G01X0024000Y0024000D02*
G01X0026000Y0024000D01*
G54D41*
G01X0024750Y0022500D03*
G01X0024500Y0026500D03*
G01X0025250Y0025000D03*
G54D30*
G01X0025000Y0025750D03*
G01X0025900Y0025750D03*
G54D23*
G01X0028250Y0019000D03*
G54D41*
G01X0028500Y0023500D03*
G01X0028500Y0024450D03*
G54D30*
G01X0031000Y0019250D03*
G01X0031900Y0019250D03*
G54D41*
G01X0031250Y0022500D03*
G01X0031500Y0022000D03*
G54D30*
G01X0030850Y0025250D03*
G01X0031750Y0025250D03*
G54D41*
G01X0025250Y0021000D03*
G01X0028000Y0024250D03*
G01X0030750Y0021000D03*
G54D30*
G01X0031000Y0018500D03*
G01X0031900Y0018500D03*
G01X0030850Y0024500D03*
G01X0031750Y0024500D03*
G54D41*
G01X0026750Y0022500D03*
G54D35*
G01X0031500Y0027500D03*
G01X0030280Y0027500D03*
G54D41*
G01X0024000Y0024000D03*
G01X0024000Y0027000D03*
G54D25*
G01X0027000Y0027500D03*
G01X0028000Y0027500D03*
G01X0029000Y0027500D03*
G54D36*
G01X0027000Y0026500D03*
G54D25*
G01X0028000Y0026500D03*
G01X0029000Y0026500D03*
G54D30*
G01X0031500Y0026750D03*
G01X0030600Y0026750D03*
G54D23*
G01X0022500Y0022150D03*
G01X0023500Y0022150D03*
G54D29*
G01X0022500Y0023000D03*
G54D23*
G01X0022500Y0024850D03*
G01X0023500Y0024850D03*
G01X0022500Y0024000D03*
G54D21*
G01X0021000Y0023500D03*
G01X0021300Y0020800D03*
G01X0021300Y0026100D03*
G54D25*
G01X0034000Y0021000D03*
G01X0034000Y0022000D03*
G01X0034000Y0024000D03*
G01X0034000Y0025000D03*
G01X0034000Y0020000D03*
G01X0034000Y0023000D03*
G01X0034000Y0026000D03*
G01X0033000Y0021000D03*
G01X0033000Y0022000D03*
G01X0033000Y0024000D03*
G01X0033000Y0025000D03*
G01X0033000Y0020000D03*
G01X0033000Y0023000D03*
G54D33*
G01X0033000Y0026000D03*
G54D30*
G01X0025000Y0028000D03*
G01X0025900Y0028000D03*
G54D25*
G01X0023000Y0019500D03*
G01X0024000Y0019500D03*
G01X0025000Y0019500D03*
G54D33*
G01X0023000Y0018500D03*
G54D25*
G01X0024000Y0018500D03*
G01X0025000Y0018500D03*
G01X0027250Y0019000D03*
G01X0029250Y0019000D03*
G54D30*
G01X0025000Y0027250D03*
G01X0025900Y0027250D03*
G01X0025000Y0026500D03*
G01X0025900Y0026500D03*
G54D37*
G01X0026000Y0022000D03*
G01X0026000Y0021500D03*
G01X0026000Y0022500D03*
G01X0026000Y0020500D03*
G01X0026000Y0021000D03*
G01X0026000Y0023500D03*
G01X0026000Y0024000D03*
G01X0026000Y0024500D03*
G01X0026000Y0025000D03*
G01X0029800Y0022000D03*
G01X0029800Y0021500D03*
G01X0029800Y0022500D03*
G01X0029800Y0020500D03*
G01X0029800Y0021000D03*
G01X0029800Y0023500D03*
G01X0029800Y0024000D03*
G01X0029800Y0024500D03*
G01X0029800Y0025000D03*
G01X0026000Y0023000D03*
G01X0029800Y0023000D03*
M02*
