M48
;FILE_FORMAT=3:3
METRIC,000.000
;TYPE=PLATED
T01C0.457
T02C0.800
T03C1.000
T05C2.300
;TYPE=NON_PLATED
T04C2.000
%
T01
X+062865Y+057150
X+062230Y+067310
X+064135Y+063500
X+072390Y+059690
Y+062103
X+079375Y+057150
X+080010Y+055880
X+064135Y+053340
X+071120Y+061595
X+078105Y+053340
X+067945Y+057150
X+060960Y+060960
Y+068580
T02
X+071755Y+048260
X+057150Y+056261
X+059690
X+057150Y+058420
Y+063119
X+059690
X+057150Y+060960
X+069215Y+048260
X+074295
T03
X+068580Y+069850
X+071120
X+073660
X+068580Y+067310
X+071120
X+073660
X+086360Y+053340
Y+055880
Y+060960
Y+063500
Y+050800
Y+058420
Y+066040
X+083820Y+053340
Y+055880
Y+060960
Y+063500
Y+050800
Y+058420
Y+066040
X+058420Y+049530
X+060960
X+063500
X+058420Y+046990
X+060960
X+063500
T04
X+051435Y+046990
Y+069850
X+086360Y+046990
Y+069850
X+091440Y+046990
Y+069850
T05
X+053340Y+059690
X+054102Y+052832
Y+066294
T00
M30
